# xmcd CD database file
#
# Track frame offsets:
#	150
#	9151
#	27597
#	48254
#	61510
#	75428
#	79928
#	98157
#	103582
#	119713
#	138322
#	154405
#	171161
#	178709
#	195254
#	211771
#	224484
#	242340
#	263894
#	285952
#
# Disc length: 4053 seconds
#
# Revision: 0
# Processed by: cddbd v1.4PL0 Copyright (c) Steve Scherf et al.
# Submitted via: CDex 1.50
#
DISCID=050fd314
DTITLE=DE | PHAZZ - Daily Lama
DYEAR=2002
DGENRE=Jazz
TTITLE0=Looks
TTITLE1=You Stayed
TTITLE2=What's Behind?
TTITLE3=Wrong Dance
TTITLE4=Atomic Ducktail 
TTITLE5=Cup Of Hope
TTITLE6=True North
TTITLE7=Almost Gone
TTITLE8=Nightmare
TTITLE9=Preachin To The Choir
TTITLE10=Try
TTITLE11=Dummes Spiel
TTITLE12=Things and Times
TTITLE13=Belle de Jour
TTITLE14=Wait
TTITLE15=Down The Railroad
TTITLE16=Désert d´Amour
TTITLE17=Style
TTITLE18=Word In A Rhyme
TTITLE19=Jean-Mi
EXTD=YEAR: 2002
EXTT0=
EXTT1=
EXTT2=
EXTT3=
EXTT4=
EXTT5=
EXTT6=
EXTT7=
EXTT8=
EXTT9=
EXTT10=
EXTT11=
EXTT12=
EXTT13=
EXTT14=
EXTT15=
EXTT16=
EXTT17=
EXTT18=
EXTT19=
PLAYORDER=
